<svg viewBox="12.0 12.0 24.0 24.0" fill="none" xmlns="http://www.w3.org/2000/svg">
<svg x="14" y="14" width="20" height="20" viewBox="0 0 20 20" fill="none">
<path id="Color 3" d="M10 20C15.5229 20 20 15.5228 20 10C20 4.47715 15.5229 0 10 0C4.47715 0 0 4.47715 0 10C0 15.5228 4.47715 20 10 20Z" fill="url(#paint0_linear_488_2366)"/>
<defs>
<linearGradient id="paint0_linear_488_2366" x1="4.44444" y1="3.33333" x2="18.8889" y2="16.6667" gradientUnits="userSpaceOnUse">
<stop stop-color="#29C3FF"/>
<stop offset="1" stop-color="#2052CB"/>
</linearGradient>
</defs></svg>
<svg x="14.2" y="14" width="19.6" height="20" viewBox="0 0 19.5999 20" fill="none">
<path id="Color 2" fill-rule="evenodd" clip-rule="evenodd" d="M6.91516 0.422388C6.59416 0.920698 6.31117 1.49638 6.06554 2.12602C5.58553 3.35643 5.22654 4.84886 5.01578 6.5H0.429571C0.248941 6.98338 0.104643 7.48449 0 8H4.86866C4.82334 8.65047 4.79996 9.31895 4.79996 10C4.79996 11.0354 4.854 12.0418 4.95703 13H0.257766C0.420948 13.5196 0.625391 14.0208 0.867255 14.5H5.16478C5.37969 15.7553 5.68448 16.8972 6.06554 17.874C6.31117 18.5036 6.59416 19.0793 6.91516 19.5776C7.82858 19.8524 8.79703 20 9.79996 20C10.8029 20 11.7713 19.8524 12.6848 19.5776C13.0058 19.0793 13.2888 18.5036 13.5344 17.874C13.9154 16.8972 14.2202 15.7553 14.4351 14.5H18.7327C18.9745 14.0208 19.179 13.5196 19.3422 13H14.6429C14.7459 12.0418 14.8 11.0354 14.8 10C14.8 9.31895 14.7766 8.65047 14.7313 8H19.5999C19.4953 7.48449 19.351 6.98338 19.1704 6.5H14.5841C14.3734 4.84886 14.0144 3.35643 13.5344 2.12602C13.2888 1.49638 13.0058 0.920698 12.6848 0.422388C11.7713 0.147647 10.8029 0 9.79996 0C8.79703 0 7.82858 0.147647 6.91516 0.422388ZM6.52874 6.5C6.72869 5.03063 7.05128 3.72645 7.46296 2.67118C7.82193 1.75104 8.23365 1.05889 8.65735 0.608969C9.07736 0.162964 9.46204 0 9.79996 0C10.1379 0 10.5226 0.162964 10.9426 0.608969C11.3663 1.05889 11.778 1.75104 12.137 2.67118C12.5486 3.72645 12.8712 5.03063 13.0712 6.5H6.52874ZM9.79996 20C10.1379 20 10.5226 19.837 10.9426 19.391C11.3663 18.9411 11.778 18.249 12.137 17.3288C12.4526 16.5197 12.7159 15.5641 12.9117 14.5H6.68821C6.884 15.5641 7.14729 16.5197 7.46296 17.3288C7.82193 18.249 8.23365 18.9411 8.65735 19.391C9.07736 19.837 9.46204 20 9.79996 20ZM6.29996 10C6.29996 11.0476 6.35815 12.0545 6.4662 13H13.1337C13.2418 12.0545 13.3 11.0476 13.3 10C13.3 9.31393 13.275 8.64532 13.2274 8H6.37249C6.32492 8.64532 6.29996 9.31393 6.29996 10Z" fill="url(#paint0_radial_488_2364)"/>
<defs>
<radialGradient id="paint0_radial_488_2364" cx="0" cy="0" r="1" gradientTransform="matrix(-11.3866 -11.253 11.3866 -11.253 16.1243 15.003)" gradientUnits="userSpaceOnUse">
<stop stop-color="#25A2F0"/>
<stop offset="0.97403" stop-color="#3BD5FF"/>
</radialGradient>
</defs></svg>
</svg>
