<svg width="16" height="17" viewBox="0 0 16 17" fill="none" xmlns="http://www.w3.org/2000/svg">
<path d="M12.0081 7.44618C12.0081 6.83203 12.0075 6.41401 11.9702 6.09219C11.9344 5.78334 11.8696 5.61593 11.7749 5.48788C11.6802 5.35984 11.5393 5.24883 11.2546 5.12419C10.9577 4.99426 10.5582 4.87117 9.97089 4.69132L7.01371 3.78624L7.01683 5.64997L7.26373 5.72577C7.82847 5.8987 8.29309 6.03999 8.65519 6.19844C9.02929 6.36216 9.34242 6.56369 9.57908 6.88363C9.81565 7.20352 9.91645 7.56166 9.96345 7.96728C10.009 8.35994 10.0084 8.84572 10.0084 9.43651V9.74236C10.0084 9.80577 10.008 9.86829 10.008 9.92949C10.4903 10.0727 10.8456 10.1663 11.1272 10.2021C11.459 10.2444 11.6013 10.1953 11.6967 10.1248C11.7981 10.0499 11.8931 9.91645 11.9491 9.53335C12.0069 9.13805 12.0081 8.59287 12.0081 7.79187V7.44618ZM9.00833 9.43651C9.00833 8.82232 9.00737 8.40434 8.97005 8.08253C8.93425 7.77367 8.86948 7.60626 8.77472 7.47818C8.68003 7.35017 8.53911 7.23952 8.25441 7.11488C7.96568 6.98851 7.57986 6.86811 7.01839 6.69614L7.01879 6.88987C7.01975 7.50266 7.02135 7.91964 7.05904 8.24073C7.0952 8.54875 7.1598 8.71572 7.25437 8.84348C7.34897 8.97129 7.48974 9.08225 7.77391 9.20678C8.06216 9.33314 8.44758 9.45259 9.00833 9.6248V9.43651ZM4.89017 3.20885C4.55744 3.16649 4.41499 3.21593 4.31943 3.28658C4.22874 3.3537 4.14518 3.46575 4.08818 3.7542C4.04093 3.99341 4.02149 4.30603 4.01357 4.73041L6.01639 5.34372L6.01367 3.63427C6.01359 3.58275 6.01375 3.53195 6.01367 3.48191C5.52952 3.33838 5.17271 3.24482 4.89017 3.20885ZM4.00849 8.82864C4.00849 9.43583 4.00897 9.84905 4.04561 10.1674C4.08078 10.4728 4.14434 10.6388 4.23742 10.7663C4.33051 10.8937 4.46927 11.0048 4.74953 11.1311C5.0417 11.2628 5.43516 11.3888 6.01367 11.5733L6.35392 11.6819C7.12468 11.9277 7.65006 12.094 8.04812 12.1597C8.43438 12.2234 8.59127 12.1722 8.69347 12.0976C8.7842 12.0312 8.86784 11.9204 8.92552 11.635C8.97333 11.3985 8.99361 11.089 9.00209 10.6694L8.76108 10.5955C8.19753 10.4226 7.73367 10.2808 7.37233 10.1225C6.99915 9.95889 6.68706 9.75793 6.45081 9.43883C6.21448 9.11965 6.11315 8.76228 6.06563 8.35754C6.01963 7.96572 6.01967 7.4809 6.01875 6.89143L6.01795 6.38984L4.00849 5.77462V8.82864ZM13.0082 7.79187C13.0082 8.56075 13.0094 9.19326 12.9386 9.67792C12.866 10.1745 12.704 10.6236 12.2913 10.9287C11.9054 11.214 11.4624 11.2532 11.0006 11.1944C10.7074 11.157 10.3728 11.0749 9.99434 10.9674C9.98153 11.2924 9.95637 11.5821 9.90565 11.8331C9.81945 12.2596 9.64732 12.6391 9.28334 12.905C8.86572 13.2102 8.38482 13.2287 7.88564 13.1464C7.39825 13.0661 6.79014 12.8708 6.04999 12.6347L5.70973 12.5261C5.15347 12.3486 4.69564 12.2036 4.33899 12.0429C3.97045 11.8768 3.66236 11.6742 3.42994 11.3561C3.19761 11.0381 3.09841 10.6833 3.05221 10.2818C3.00744 9.89317 3.00844 9.41267 3.00844 8.82864V5.47108C2.52618 5.3282 2.17083 5.23491 1.88925 5.19919C1.55734 5.15707 1.41514 5.20635 1.31969 5.27691C1.21839 5.35184 1.12328 5.48516 1.06734 5.86798C1.00963 6.263 1.00835 6.80786 1.00835 7.60826V10.8659C1.00835 11.4798 1.00897 11.8977 1.04624 12.2194C1.08204 12.5283 1.14686 12.6957 1.24156 12.8238C1.33627 12.9518 1.47715 13.0628 1.7619 13.1874C2.05866 13.3174 2.45834 13.4404 3.04557 13.6203L6.82347 14.7778C7.96092 15.1262 8.38534 15.2449 8.80052 15.1895C9.2157 15.1341 9.59396 14.9082 10.6002 14.2738L13.6636 12.3429C14.0572 12.0948 14.3228 11.9266 14.5187 11.7753C14.7063 11.6305 14.7995 11.5235 14.8602 11.4135C14.9208 11.3036 14.9615 11.1678 14.984 10.9319C15.0075 10.6854 15.0083 10.371 15.0083 9.90565V5.45584C15.0083 4.84165 15.0073 4.42367 14.9699 4.10186C14.9342 3.7932 14.8696 3.62595 14.775 3.49791C14.6803 3.36986 14.5392 3.2589 14.2543 3.13425C13.9575 3.00432 13.5579 2.88124 12.9706 2.70139L9.64548 1.683C8.87896 1.44829 8.35662 1.29002 7.9614 1.22946C7.57862 1.17083 7.42325 1.22246 7.32193 1.29743C7.23128 1.36458 7.14772 1.47668 7.09108 1.76503C7.04408 2.00423 7.02491 2.31687 7.01763 2.74123L10.2635 3.73544C10.8283 3.90841 11.2932 4.04961 11.6553 4.2081C12.0294 4.37187 12.3422 4.5734 12.5788 4.89329C12.8154 5.21323 12.9166 5.57129 12.9636 5.97695C13.0091 6.3696 13.0082 6.85543 13.0082 7.44618V7.79187ZM16.0083 9.90565C16.0083 10.3523 16.0088 10.722 15.9798 11.0268C15.9497 11.3422 15.8853 11.6251 15.7356 11.8964C15.586 12.1676 15.3809 12.3731 15.1301 12.5667C14.8878 12.7539 14.5747 12.9504 14.1969 13.1886L11.1334 15.12C10.2043 15.7056 9.61468 16.0896 8.93257 16.1805C8.25041 16.2715 7.58066 16.0554 6.53049 15.7336L2.75259 14.5766C2.18784 14.4036 1.72317 14.262 1.3611 14.1035C0.987057 13.9398 0.674206 13.7382 0.437622 13.4183C0.201035 13.0984 0.10025 12.7403 0.0532283 12.3347C0.00772209 11.9421 0.00830215 11.4564 0.00830215 10.8659V7.60826C0.00830215 6.83991 0.00707811 6.2078 0.0778375 5.72341C0.150377 5.22699 0.312285 4.77813 0.724744 4.47295C1.11051 4.18766 1.55328 4.14834 2.01504 4.20694C2.30803 4.2441 2.64271 4.32555 3.02096 4.43275C3.03309 4.10486 3.05737 3.81304 3.10729 3.56043C3.19181 3.13261 3.36182 2.75119 3.72488 2.48264C4.11114 2.19697 4.5544 2.15812 5.01674 2.21701C5.31023 2.25439 5.64549 2.33607 6.02459 2.44358C6.03635 2.11621 6.06019 1.82479 6.10975 1.57244C6.19384 1.14451 6.36368 0.762726 6.72658 0.493877C7.13932 0.188191 7.6165 0.164682 8.11297 0.240741C8.59743 0.314973 9.2023 0.501406 9.93805 0.7267L13.2636 1.74511C13.8285 1.91807 14.2933 2.05968 14.6555 2.21818C15.0295 2.3819 15.3424 2.58311 15.579 2.90296C15.8156 3.22289 15.9163 3.58103 15.9633 3.98661C16.0089 4.37927 16.0083 4.86509 16.0083 5.45584V9.90565Z" fill="#424242"/>
</svg>
